<svg xmlns="http://www.w3.org/2000/svg" width="1010" height="420" viewBox="0 0 1010 420" role="img" aria-label="community route cover">
  <defs>
    <linearGradient id="g" x1="0" y1="0" x2="1" y2="1">
      <stop offset="0" stop-color="#1fab89"/>
      <stop offset="1" stop-color="#a8e063"/>
    </linearGradient>
    <radialGradient id="r" cx="75%" cy="18%" r="55%">
      <stop offset="0" stop-color="#ffffff" stop-opacity="0.72"/>
      <stop offset="1" stop-color="#ffffff" stop-opacity="0"/>
    </radialGradient>
    <filter id="blur"><feGaussianBlur stdDeviation="18"/></filter>
  </defs>
  <rect width="1010" height="420" fill="#f0fff7"/>
  <rect width="1010" height="420" fill="url(#g)" opacity="0.88"/>
  <circle cx="795" cy="78" r="150" fill="url(#r)"/>
  <circle cx="126" cy="82" r="86" fill="#fff" opacity="0.13" filter="url(#blur)"/>
  <circle cx="910" cy="292" r="70" fill="#fff" opacity="0.12" filter="url(#blur)"/>
  <circle cx="210" cy="128" r="112" fill="#0c2547" opacity="0.10"/>
  <circle cx="300" cy="122" r="64" fill="#ffffff" opacity="0.10"/>
  <path d="M0 280 C104 176 208 154 316 236 C416 312 488 110 626 82 C758 54 790 218 902 198 C954 188 990 164 1010 144 L1010 420 L0 420 Z" fill="#ffffff" opacity="0.24"/>
  <path d="M0 280 C104 176 208 154 316 236 C416 312 488 110 626 82 C758 54 790 218 902 198 C954 188 990 164 1010 144 L1010 420 L0 420 Z" fill="#17345f" opacity="0.12" transform="translate(0 30)"/>
  <g fill="none" stroke="#ffffff" stroke-opacity="0.36" stroke-width="3">
    <path d="M112 310 C220 238 310 268 414 212 S610 148 742 214 S894 260 958 198"/>
    <path d="M88 336 C210 286 324 326 448 270 S690 190 928 260" opacity="0.62"/>
    <path d="M132 210 C280 172 390 224 520 158 S770 118 930 188" opacity="0.28"/>
  </g>
  <g fill="#ffffff" opacity="0.34">
    <circle cx="146" cy="308" r="8"/>
    <circle cx="414" cy="212" r="8"/>
    <circle cx="742" cy="214" r="8"/>
    <circle cx="958" cy="198" r="8"/>
  </g>
</svg>
